<svg width="50" height="50" viewBox="0 0 50 50" fill="none" xmlns="http://www.w3.org/2000/svg">
    <g clip-path="url(#clip0_342_343)">
        <path d="M25 50C38.8071 50 50 38.8071 50 25C50 11.1929 38.8071 0 25 0C11.1929 0 0 11.1929 0 25C0 38.8071 11.1929 50 25 50Z" fill="#3F9DE7"/>
        <path d="M42.5 25C42.5 21.6458 42.3542 18.5833 41.7708 16.8333C41.1875 14.7917 40.4583 12.8958 38.7083 11.1458C36.5208 9.10417 34.625 8.52083 31.7083 7.9375C29.6667 7.64583 27.1875 7.5 25.7292 7.5H24.4167C22.8125 7.5 20.4792 7.64583 18.2917 7.9375C15.375 8.52083 13.3333 9.25 11.2917 11.1458C9.39583 12.8958 8.8125 14.7917 8.22917 16.8333C7.64583 18.5833 7.5 21.6458 7.5 25C7.5 28.3542 7.64583 31.4167 8.22917 33.1667C8.8125 35.2083 9.54167 37.1042 11.2917 38.8542C13.4792 40.8958 15.375 41.4792 18.2917 42.0625C20.625 42.5 23.5417 42.5 25 42.5C26.4583 42.5 29.375 42.5 31.8542 42.0625C34.625 41.4792 36.6667 40.8958 38.8542 38.8542C40.6042 37.25 41.3333 35.3542 41.9167 33.1667C42.3542 31.4167 42.5 28.3542 42.5 25Z" fill="#379DF1"/>
        <path d="M35.3542 33.0208V16.9791C35.3542 15.6666 34.3334 14.6458 33.0209 14.6458H16.9792C15.6667 14.6458 14.6459 15.6666 14.6459 16.9791V33.0208C14.6459 34.3333 15.6667 35.3541 16.9792 35.3541H33.0209C34.3334 35.3541 35.3542 34.3333 35.3542 33.0208ZM21.5 27.3333L23.9792 30.2499L27.4792 25.7291C27.7709 25.4374 28.2084 25.4374 28.3542 25.7291L32.4375 31.1249C32.7292 31.4166 32.4375 31.9999 32 31.9999H18.1459C17.7084 31.9999 17.2709 31.4166 17.7084 31.1249L20.625 27.4791C20.7709 26.8958 21.2084 26.8958 21.5 27.3333Z" fill="white"/>
    </g>
    <defs>
        <clipPath id="clip0_342_343">
            <rect width="50" height="50" fill="white"/>
        </clipPath>
    </defs>
</svg>
