<svg width="55" height="55" viewBox="0 0 55 55" fill="none" xmlns="http://www.w3.org/2000/svg">
    <g clip-path="url(#clip0_335_67)">
        <path d="M32.2266 41.8945C32.2266 38.1884 34.3856 34.7724 37.7374 33.161C38.3175 32.9032 38.6719 32.3231 38.6719 31.7108V11.2793L29.0039 9.66797L27.3926 0H1.61133C0.708877 0 0 0.708877 0 1.61133V46.7285C0 47.6308 0.708877 48.3398 1.61133 48.3398H31.711C32.2588 48.3398 32.7744 48.0497 33.0644 47.5985C33.3866 47.1152 33.4189 46.5353 33.161 46.0194C32.5487 44.7627 32.2266 43.3768 32.2266 41.8945ZM49.2219 38.2195C48.6145 37.6105 47.8025 37.2754 46.9434 37.2754C46.0842 37.2754 45.2722 37.6105 44.6648 38.2195L40.498 42.3863L39.5539 41.4422C38.9465 40.8332 38.1345 40.498 37.2754 40.498C36.4162 40.498 35.6042 40.8332 34.9969 41.4422C34.3895 42.0512 34.0527 42.8599 34.0527 43.7207C34.0527 44.5815 34.3895 45.3903 34.9969 45.9992L38.2195 49.2219C38.8269 49.8309 39.6389 50.166 40.498 50.166C41.3572 50.166 42.1692 49.8309 42.7766 49.2219L49.2219 42.7766C50.4775 41.5208 50.4775 39.4753 49.2219 38.2195Z" fill="url(#paint0_linear_335_67)"/>
        <path d="M38.1884 10.1513L28.5204 0.483291C28.2305 0.161133 27.8115 0 27.3926 0V9.66797C27.3926 10.5579 28.114 11.2793 29.0039 11.2793H38.6719C38.6719 10.8604 38.5107 10.4414 38.1884 10.1513ZM11.2793 12.8906H17.7246C18.6152 12.8906 19.3359 12.1699 19.3359 11.2793C19.3359 10.3887 18.6152 9.66797 17.7246 9.66797H11.2793C10.3887 9.66797 9.66797 10.3887 9.66797 11.2793C9.66797 12.1699 10.3887 12.8906 11.2793 12.8906ZM27.3926 19.3359H11.2793C10.3887 19.3359 9.66797 20.0566 9.66797 20.9473C9.66797 21.8379 10.3887 22.5586 11.2793 22.5586H27.3926C28.2832 22.5586 29.0039 21.8379 29.0039 20.9473C29.0039 20.0566 28.2832 19.3359 27.3926 19.3359ZM27.3926 25.7812H11.2793C10.3887 25.7812 9.66797 26.5019 9.66797 27.3926C9.66797 28.2832 10.3887 29.0039 11.2793 29.0039H27.3926C28.2832 29.0039 29.0039 28.2832 29.0039 27.3926C29.0039 26.5019 28.2832 25.7812 27.3926 25.7812ZM27.3926 32.2266H11.2793C10.3887 32.2266 9.66797 32.9473 9.66797 33.8379C9.66797 34.7285 10.3887 35.4492 11.2793 35.4492H27.3926C28.2832 35.4492 29.0039 34.7285 29.0039 33.8379C29.0039 32.9473 28.2832 32.2266 27.3926 32.2266ZM42.1094 29.2188C34.8583 29.2188 29.2188 35.1724 29.2188 42.1094C29.2188 49.3464 35.1629 55 42.1094 55C49.2188 55 55 49.2172 55 42.1094C55 35.0016 49.2188 29.2188 42.1094 29.2188ZM48.0826 41.6373L41.6373 48.0826C41.3225 48.3973 40.9102 48.5547 40.498 48.5547C40.0859 48.5547 39.6735 48.3973 39.3588 48.0826L36.1362 44.8599C35.5068 44.2305 35.5068 43.2108 36.1362 42.5814C36.7656 41.952 37.7853 41.952 38.4147 42.5814L40.498 44.6648L45.8041 39.3587C46.4335 38.7293 47.4533 38.7293 48.0827 39.3587C48.7121 39.9881 48.7121 41.0079 48.0826 41.6373Z" fill="url(#paint1_linear_335_67)"/>
    </g>
    <defs>
        <linearGradient id="paint0_linear_335_67" x1="25.0818" y1="50.166" x2="25.0818" y2="0" gradientUnits="userSpaceOnUse">
            <stop stop-color="#5558FF"/>
            <stop offset="1" stop-color="#00FFD8"/>
        </linearGradient>
        <linearGradient id="paint1_linear_335_67" x1="32.334" y1="55" x2="32.334" y2="0" gradientUnits="userSpaceOnUse">
            <stop stop-color="#ADDCFF"/>
            <stop offset="0.503" stop-color="#EAF6FF"/>
            <stop offset="1" stop-color="#EAF6FF"/>
        </linearGradient>
        <clipPath id="clip0_335_67">
            <rect width="55" height="55" fill="white"/>
        </clipPath>
    </defs>
</svg>
