<svg width="50" height="50" viewBox="0 0 50 50" fill="none" xmlns="http://www.w3.org/2000/svg">
    <g clip-path="url(#clip0_342_327)">
        <path fill-rule="evenodd" clip-rule="evenodd" d="M43.9816 2.97676C44.056 2.97804 44.127 3.00838 44.1793 3.06131C44.2316 3.11423 44.2612 3.18553 44.2616 3.25997V8.04473H21.9043C21.8503 8.04678 21.7969 8.03233 21.7512 8.00328C21.7056 7.97423 21.6699 7.93198 21.6489 7.88213L19.3344 2.97676H43.9816ZM25 50.0001C17.5608 50.0001 11.512 43.9489 11.512 36.5102C11.512 29.0714 17.5608 23.0206 25 23.0206C32.4393 23.0206 38.488 29.0718 38.488 36.5102C38.488 43.9485 32.4393 50.0001 25 50.0001ZM47.2393 34.2365V11.2042C47.2389 10.8082 47.0813 10.4285 46.8012 10.1486C46.521 9.86866 46.1412 9.71143 45.7451 9.71143H21.9043C21.5343 9.71296 21.1716 9.60854 20.859 9.4105C20.5464 9.21246 20.2971 8.92908 20.1405 8.59385L16.4896 0.855084C16.3746 0.595627 16.1853 0.376001 15.9458 0.22386C15.7062 0.0717197 15.4269 -0.00613357 15.1432 0.000103297H4.25452C3.8585 -0.000103979 3.47862 0.156993 3.19843 0.436842C2.91823 0.716691 2.76066 1.09638 2.76038 1.49239V34.2365C2.76074 34.6326 2.91832 35.0123 3.19848 35.2922C3.47865 35.5721 3.85848 35.7293 4.25452 35.7293H9.86096C10.2738 27.7333 16.9073 21.3543 25 21.3543C33.0928 21.3543 39.7266 27.7337 40.1341 35.7293H45.7455C46.1416 35.7293 46.5214 35.5721 46.8016 35.2922C47.0817 35.0123 47.2393 34.6326 47.2397 34.2365H47.2393ZM30.2871 39.2314C30.2097 39.1539 30.1178 39.0925 30.0166 39.0506C29.9154 39.0087 29.807 38.9871 29.6975 38.9871C29.588 38.9871 29.4795 39.0087 29.3784 39.0506C29.2772 39.0925 29.1853 39.1539 29.1078 39.2314L29.0046 39.3364L28.3905 38.7247C29.4779 37.3333 29.9931 35.5793 29.831 33.8209C29.6689 32.0625 28.8416 30.4322 27.5181 29.2631C26.1947 28.094 24.4748 27.4743 22.7098 27.5304C20.9448 27.5865 19.2678 28.3142 18.0212 29.565C16.7747 30.8158 16.0526 32.4953 16.0025 34.2605C15.9524 36.0257 16.578 37.7434 17.7516 39.0629C18.9252 40.3824 20.5583 41.2041 22.3173 41.3603C24.0762 41.5164 25.8285 40.9952 27.2161 39.903L27.8254 40.5143L27.7222 40.6185C27.5664 40.7752 27.479 40.9871 27.479 41.2081C27.479 41.4291 27.5664 41.6411 27.7222 41.7978L30.9554 45.031C31.2959 45.3695 31.7568 45.5592 32.237 45.5585C32.7172 45.5578 33.1775 45.3667 33.517 45.0271C33.8565 44.6876 34.0475 44.2272 34.0481 43.747C34.0488 43.2668 33.859 42.806 33.5203 42.4655L30.2871 39.2314ZM19.1675 38.1719C20.0343 39.0381 21.1746 39.577 22.3942 39.6968C23.6138 39.8166 24.8372 39.5098 25.8559 38.8287C26.8747 38.1477 27.6258 37.1344 27.9813 35.9617C28.3368 34.789 28.2747 33.5292 27.8056 32.3971C27.3365 31.265 26.4893 30.3306 25.4085 29.753C24.3277 29.1755 23.0801 28.9905 21.8782 29.2297C20.6763 29.4688 19.5945 30.1173 18.8171 31.0645C18.0397 32.0118 17.6148 33.1994 17.6148 34.4248C17.6153 35.8302 18.1738 37.178 19.1675 38.1719ZM32.3413 43.8531C32.3553 43.8395 32.3665 43.8232 32.3741 43.8053C32.3817 43.7873 32.3856 43.768 32.3856 43.7484C32.3856 43.7289 32.3817 43.7096 32.3741 43.6916C32.3665 43.6736 32.3553 43.6574 32.3413 43.6438L29.6973 40.9987L29.5941 41.1029V41.1039L29.4861 41.2081L32.1345 43.8531C32.1622 43.8799 32.1992 43.8949 32.2377 43.8949C32.2762 43.8949 32.3132 43.8799 32.3408 43.8531H32.3413Z" fill="url(#paint0_linear_342_327)"/>
    </g>
    <defs>
        <linearGradient id="paint0_linear_342_327" x1="5.62844" y1="36.3641" x2="42.4249" y2="1.22413" gradientUnits="userSpaceOnUse">
            <stop stop-color="#66BC6F"/>
            <stop offset="0.206" stop-color="#5EC2A7"/>
            <stop offset="0.528" stop-color="#57AEC6"/>
            <stop offset="0.924" stop-color="#11A3D4"/>
            <stop offset="1" stop-color="#20C4F4"/>
        </linearGradient>
        <clipPath id="clip0_342_327">
            <rect width="50" height="50" fill="white"/>
        </clipPath>
    </defs>
</svg>
