<svg xmlns="http://www.w3.org/2000/svg" xmlns:xlink="http://www.w3.org/1999/xlink" version="1.1" width="512" height="512" x="0" y="0" viewBox="0 0 512 512" style="enable-background:new 0 0 512 512" xml:space="preserve" class=""><g><linearGradient id="a" x1="257.571" x2="254.501" y1="520.96" y2="3.18" gradientTransform="matrix(1 0 0 -1 0 512)" gradientUnits="userSpaceOnUse"><stop stop-opacity="1" stop-color="#045fc6" offset="0.04826254826254826"/><stop stop-opacity="1" stop-color="#47ff87" offset="1"/></linearGradient><path fill="url(#a)" d="M256 0C114.6 0 0 114.6 0 256s114.6 256 256 256 256-114.6 256-256S397.4 0 256 0zm29 431.9c-7.6 7.8-18.1 12.3-29 12.3h-.7c-23.2 0-42-18.8-42-42s18.8-42 42-42h.7c23.2.4 41.7 19.5 41.3 42.7-.2 10.9-4.6 21.3-12.3 29zm66.7-220.8c-6.9 13.1-17.9 26.9-32.6 41-17.9 17.2-23.9 26.2-25.7 30.8s-4.2 14.5-4.5 34.5c-.1 4.9-4.1 8.8-9 8.8h-47.2c-5 0-9-4-9-9v-.1c0-10.5.8-20.9 2.4-31.3 1.4-8.8 3.5-16.1 6.2-21.9 4.7-9.9 12.4-20.1 23.7-31.2 1.9-1.9 3.9-3.7 6-5.6 12.6-11.4 22.4-22.1 29.1-31.7 6.1-8.8 9-17.8 9-27.7 0-11.8-3.8-21.3-11.5-29s-18.3-11.4-32.5-11.5h-.7c-13.9 0-24.1 3.6-31.2 11.1-8 8.4-13.9 17.2-17.5 26.2-1.9 4.6-7.1 6.8-11.7 5-.1 0-.2-.1-.3-.1L155 152c-4.4-1.9-6.5-6.9-4.8-11.4 3.7-10 8.8-19.4 15.1-27.9 6.5-8.8 14.2-16.7 22.9-23.4 18-14.3 40.6-21.5 67.1-21.5h.7c33.5.1 59.9 9.8 78.4 28.9s28 42.4 28 69.2c0 16.5-3.6 31.7-10.7 45.2z" opacity="1" data-original="url(#a)" class=""/></g></svg>