<svg width="50" height="50" viewBox="0 0 50 50" fill="none" xmlns="http://www.w3.org/2000/svg">
    <g clip-path="url(#clip0_335_82)">
        <path d="M25 50C38.8071 50 50 38.8071 50 25C50 11.1929 38.8071 0 25 0C11.1929 0 0 11.1929 0 25C0 38.8071 11.1929 50 25 50Z" fill="url(#paint0_linear_335_82)"/>
        <path d="M39.5834 10.4166H10.4167C8.54171 10.4166 7.08337 11.875 7.08337 13.75V36.4583C7.08337 38.125 8.54171 39.5833 10.4167 39.5833H39.5834C41.4584 39.5833 42.9167 38.125 42.9167 36.25V13.75C42.9167 11.875 41.4584 10.4166 39.5834 10.4166ZM39.5834 36.25H10.4167V13.75H39.5834V36.25ZM31.4584 33.125C32.5 33.125 33.125 32.5 33.125 31.4583V25.8333C33.125 24.7916 32.5 24.1666 31.4584 24.1666C30.4167 24.1666 29.7917 24.7916 29.7917 25.8333V31.4583C29.7917 32.5 30.4167 33.125 31.4584 33.125ZM25 33.125C26.0417 33.125 26.6667 32.5 26.6667 31.4583V18.5416C26.6667 17.5 26.0417 16.875 25 16.875C23.9584 16.875 23.3334 17.5 23.3334 18.5416V31.4583C23.3334 32.5 23.9584 33.125 25 33.125ZM18.5417 33.125C19.5834 33.125 20.2084 32.5 20.2084 31.4583V21.6666C20.2084 20.625 19.5834 20 18.5417 20C17.5 20 16.875 20.625 16.875 21.6666V31.4583C16.875 32.5 17.5 33.125 18.5417 33.125Z" fill="white"/>
    </g>
    <defs>
        <linearGradient id="paint0_linear_335_82" x1="0" y1="25" x2="50" y2="25" gradientUnits="userSpaceOnUse">
            <stop stop-color="#22FFBD"/>
            <stop offset="1" stop-color="#335FEE"/>
        </linearGradient>
        <clipPath id="clip0_335_82">
            <rect width="50" height="50" fill="white"/>
        </clipPath>
    </defs>
</svg>
