<svg width="50" height="50" viewBox="0 0 50 50" fill="none" xmlns="http://www.w3.org/2000/svg">
    <g clip-path="url(#clip0_335_86)">
        <path d="M27.9297 50H22.0703C21.7229 50 21.3869 49.8765 21.1221 49.6517C20.8573 49.4268 20.6811 49.1152 20.6248 48.7724L19.724 43.2846C18.3597 42.8911 17.0441 42.3449 15.8022 41.6563L11.3501 44.8363C11.0679 45.0379 10.7234 45.1328 10.3779 45.1042C10.0323 45.0755 9.70807 44.9253 9.46289 44.6801L5.31982 40.5371C5.07463 40.2919 4.92436 39.9677 4.89575 39.6222C4.86714 39.2766 4.96204 38.9321 5.16357 38.6499L8.34356 34.1978C7.65503 32.9559 7.10883 31.6403 6.71533 30.276L1.22764 29.3753C0.884842 29.319 0.573203 29.1427 0.348338 28.8779C0.123474 28.6132 1.6764e-05 28.2771 0 27.9297L0 22.0703C5.90623e-07 21.7229 0.123454 21.3869 0.348324 21.1221C0.573193 20.8573 0.884841 20.6811 1.22764 20.6248L6.71533 19.7241C7.10883 18.3598 7.65503 17.0442 8.34356 15.8023L5.16357 11.3502C4.96204 11.068 4.86714 10.7235 4.89575 10.3779C4.92436 10.0324 5.07463 9.70817 5.31982 9.46299L9.46289 5.31982C9.70807 5.07463 10.0323 4.92436 10.3779 4.89575C10.7234 4.86714 11.0679 4.96204 11.3501 5.16357L15.8022 8.34356C17.0441 7.65503 18.3597 7.10883 19.724 6.71533L20.6248 1.22754C20.6811 0.884761 20.8573 0.573136 21.1221 0.348286C21.3869 0.123437 21.7229 -3.21031e-06 22.0703 0L27.9297 0C28.2771 5.90686e-07 28.6131 0.123454 28.8779 0.348324C29.1427 0.573193 29.3189 0.884841 29.3752 1.22764L30.276 6.71533C31.6403 7.10883 32.9559 7.65503 34.1978 8.34356L38.6499 5.16357C38.9321 4.96202 39.2766 4.86711 39.6222 4.89572C39.9677 4.92433 40.2919 5.07461 40.5371 5.31982L44.6802 9.46289C44.9254 9.70807 45.0756 10.0323 45.1043 10.3779C45.1329 10.7234 45.038 11.0679 44.8364 11.3501L41.6564 15.8022C42.3449 17.0441 42.8911 18.3597 43.2847 19.724L48.7724 20.6247C49.1152 20.681 49.4268 20.8573 49.6517 21.1221C49.8765 21.3868 50 21.7229 50 22.0703V27.9297C50 28.2771 49.8765 28.6131 49.6517 28.8779C49.4268 29.1427 49.1152 29.3189 48.7724 29.3752L43.2847 30.2759C42.8912 31.6402 42.345 32.9558 41.6564 34.1977L44.8364 38.6498C45.038 38.932 45.1329 39.2765 45.1043 39.6221C45.0756 39.9676 44.9254 40.2918 44.6802 40.537L40.5371 44.6802C40.2919 44.9254 39.9677 45.0756 39.6221 45.1042C39.2766 45.1328 38.9321 45.0379 38.6499 44.8364L34.1978 41.6564C32.9559 42.345 31.6403 42.8912 30.276 43.2847L29.3752 48.7724C29.3189 49.1152 29.1427 49.4268 28.8779 49.6517C28.6131 49.8765 28.2771 50 27.9297 50Z" fill="url(#paint0_linear_335_86)"/>
        <path d="M25 35.2539C19.346 35.2539 14.7461 30.654 14.7461 25C14.7461 19.346 19.346 14.7461 25 14.7461C30.654 14.7461 35.2539 19.346 35.2539 25C35.2539 30.654 30.654 35.2539 25 35.2539Z" fill="url(#paint1_linear_335_86)"/>
    </g>
    <defs>
        <linearGradient id="paint0_linear_335_86" x1="25" y1="50" x2="25" y2="0" gradientUnits="userSpaceOnUse">
            <stop stop-color="#5558FF"/>
            <stop offset="1" stop-color="#00FF96"/>
        </linearGradient>
        <linearGradient id="paint1_linear_335_86" x1="25" y1="35.2539" x2="25" y2="14.7461" gradientUnits="userSpaceOnUse">
            <stop stop-color="#ADDCFF"/>
            <stop offset="0.503" stop-color="#EAF6FF"/>
            <stop offset="1" stop-color="#EAFFFD"/>
        </linearGradient>
        <clipPath id="clip0_335_86">
            <rect width="50" height="50" fill="white"/>
        </clipPath>
    </defs>
</svg>
