<svg width="50" height="50" viewBox="0 0 50 50" fill="none" xmlns="http://www.w3.org/2000/svg">
    <g clip-path="url(#clip0_368_511)">
        <path d="M45.6055 0H35.2539V11.7188H50V4.39453C50 1.97129 48.0287 0 45.6055 0ZM4.39453 0C1.97129 0 0 1.97129 0 4.39453V11.7188H32.3242V0H4.39453ZM10.3516 8.78906H7.42188C6.61221 8.78906 5.95703 8.13389 5.95703 7.32422C5.95703 6.51455 6.61221 5.85938 7.42188 5.85938H10.3516C11.1612 5.85938 11.8164 6.51455 11.8164 7.32422C11.8164 8.13389 11.1612 8.78906 10.3516 8.78906ZM19.1406 8.78906H16.2109C15.4013 8.78906 14.7461 8.13389 14.7461 7.32422C14.7461 6.51455 15.4013 5.85938 16.2109 5.85938H19.1406C19.9503 5.85938 20.6055 6.51455 20.6055 7.32422C20.6055 8.13389 19.9503 8.78906 19.1406 8.78906ZM27.9297 8.78906H25C24.1903 8.78906 23.5352 8.13389 23.5352 7.32422C23.5352 6.51455 24.1903 5.85938 25 5.85938H27.9297C28.7394 5.85938 29.3945 6.51455 29.3945 7.32422C29.3945 8.13389 28.7394 8.78906 27.9297 8.78906ZM0 14.6484V45.6055C0 48.0287 1.97129 50 4.39453 50H45.6055C48.0287 50 50 48.0287 50 45.6055V14.6484H0ZM39.6484 23.4375H37.7739L32.2484 40.1119C32.1514 40.4036 31.965 40.6573 31.7157 40.837C31.4663 41.0167 31.1667 41.1134 30.8594 41.1133C30.552 41.1134 30.2524 41.0167 30.0031 40.837C29.7537 40.6573 29.5673 40.4036 29.4703 40.1119L25 26.6047L20.5297 40.1119C20.132 41.3078 18.1493 41.3078 17.7517 40.1119L12.2261 23.4375H10.3516C9.54189 23.4375 8.88672 22.7823 8.88672 21.9727C8.88672 21.163 9.54189 20.5078 10.3516 20.5078H16.2109C17.0206 20.5078 17.6758 21.163 17.6758 21.9727C17.6758 22.7823 17.0206 23.4375 16.2109 23.4375H15.3131L19.1406 35.0164L22.9682 23.4375H22.0703C21.2606 23.4375 20.6055 22.7823 20.6055 21.9727C20.6055 21.163 21.2606 20.5078 22.0703 20.5078H27.9297C28.7394 20.5078 29.3945 21.163 29.3945 21.9727C29.3945 22.7823 28.7394 23.4375 27.9297 23.4375H27.0318L30.8594 35.0164L34.6869 23.4375H33.7891C32.9794 23.4375 32.3242 22.7823 32.3242 21.9727C32.3242 21.163 32.9794 20.5078 33.7891 20.5078H39.6484C40.4581 20.5078 41.1133 21.163 41.1133 21.9727C41.1133 22.7823 40.4581 23.4375 39.6484 23.4375Z" fill="#5492D9"/>
    </g>
    <defs>
        <clipPath id="clip0_368_511">
            <rect width="50" height="50" fill="white"/>
        </clipPath>
    </defs>
</svg>
